<?xml version="1.0" encoding="UTF-8" standalone="no"?>
<!-- Generator: Adobe Illustrator 19.0.0, SVG Export Plug-In . SVG Version: 6.00 Build 0)  -->

<svg
   xmlns:dc="http://purl.org/dc/elements/1.1/"
   xmlns:cc="http://creativecommons.org/ns#"
   xmlns:rdf="http://www.w3.org/1999/02/22-rdf-syntax-ns#"
   xmlns:svg="http://www.w3.org/2000/svg"
   xmlns="http://www.w3.org/2000/svg"
   xmlns:sodipodi="http://sodipodi.sourceforge.net/DTD/sodipodi-0.dtd"
   xmlns:inkscape="http://www.inkscape.org/namespaces/inkscape"
   version="1.1"
   id="Capa_1"
   x="0px"
   y="0px"
   viewBox="0 0 220.00001 220.00001"
   xml:space="preserve"
   sodipodi:docname="focus_negative.svg"
   width="220"
   height="220"
   inkscape:version="0.92.1 unknown"
   inkscape:export-filename="/home/thomas/Dropbox/workspace/lineages_repo/lineages/res/images/focus.svg.png"
   inkscape:export-xdpi="95.999992"
   inkscape:export-ydpi="95.999992"><metadata
     id="metadata51"><rdf:RDF><cc:Work
         rdf:about=""><dc:format>image/svg+xml</dc:format><dc:type
           rdf:resource="http://purl.org/dc/dcmitype/StillImage" /><dc:title></dc:title></cc:Work></rdf:RDF></metadata><defs
     id="defs49" /><sodipodi:namedview
     pagecolor="#ffffff"
     bordercolor="#666666"
     borderopacity="1"
     objecttolerance="10"
     gridtolerance="10"
     guidetolerance="10"
     inkscape:pageopacity="0"
     inkscape:pageshadow="2"
     inkscape:window-width="1871"
     inkscape:window-height="1056"
     id="namedview47"
     showgrid="false"
     inkscape:zoom="1.4142136"
     inkscape:cx="239.62578"
     inkscape:cy="96.279571"
     inkscape:window-x="49"
     inkscape:window-y="24"
     inkscape:window-maximized="1"
     inkscape:current-layer="Capa_1" /><g
     id="g16"
     transform="translate(0,-271.29999)" /><g
     id="g18"
     transform="translate(0,-271.29999)" /><g
     id="g20"
     transform="translate(0,-271.29999)" /><g
     id="g22"
     transform="translate(0,-271.29999)" /><g
     id="g24"
     transform="translate(0,-271.29999)" /><g
     id="g26"
     transform="translate(0,-271.29999)" /><g
     id="g28"
     transform="translate(0,-271.29999)" /><g
     id="g30"
     transform="translate(0,-271.29999)" /><g
     id="g32"
     transform="translate(0,-271.29999)" /><g
     id="g34"
     transform="translate(0,-271.29999)" /><g
     id="g36"
     transform="translate(0,-271.29999)" /><g
     id="g38"
     transform="translate(0,-271.29999)" /><g
     id="g40"
     transform="translate(0,-271.29999)" /><g
     id="g42"
     transform="translate(0,-271.29999)" /><g
     id="g44"
     transform="translate(0,-271.29999)" /><g
     id="g93"><path
       id="path10"
       style="fill:#000000;stroke-width:0.42761147"
       d="m 201.23091,5.0000021 h -55.8033 c -2.95052,0 -5.30238,2.3946243 -5.30238,5.3023819 v 16.847893 c 0,2.950519 2.39462,5.302382 5.30238,5.302382 h 42.07697 v 41.050702 c 0,2.950519 2.39462,5.302383 5.30238,5.302383 h 16.84789 c 2.95052,0 5.30239,-2.394625 5.30239,-5.302383 V 18.769092 C 215,11.157607 208.84239,5.0000021 201.23091,5.0000021 Z m 8.46671,132.0891879 h -16.8479 c -2.95052,0 -5.30238,2.39462 -5.30238,5.30238 v 45.02749 h -42.07697 c -2.95052,0 -5.30238,2.39462 -5.30238,5.30238 v 16.84789 c 0,2.95052 2.39462,5.30239 5.30238,5.30239 h 55.84606 c 7.56872,0 13.76909,-6.15761 13.76909,-13.76909 v -58.6683 c -0.0855,-2.95052 -2.48015,-5.34514 -5.3879,-5.34514 z M 10.345143,78.848505 h 16.847893 c 2.950519,0 5.302382,-2.394625 5.302382,-5.302383 V 32.49542 h 44.001221 c 2.95052,0 5.302383,-2.394624 5.302383,-5.302382 V 10.302384 c 0,-2.9505187 -2.394624,-5.3023819 -5.302383,-5.3023819 H 18.76909 C 11.200366,5.0000021 5,11.157607 5,18.769092 v 54.77703 c 0.042761,2.95052 2.4373854,5.302383 5.345143,5.302383 z M 159.36774,118.44533 v -16.93342 c 0,-2.950516 -2.39462,-5.302379 -5.30238,-5.302379 H 123.83323 V 65.934638 c 0,-2.950519 -2.39462,-5.302382 -5.30238,-5.302382 h -16.93342 c -2.950516,0 -5.302379,2.394624 -5.302379,5.302382 V 96.16677 H 65.977397 c -2.950519,0 -5.302382,2.394624 -5.302382,5.30238 v 16.93342 c 0,2.95052 2.394624,5.30238 5.302382,5.30238 h 30.232132 v 30.31765 c 0,2.95052 2.394624,5.30239 5.302381,5.30239 h 16.93342 c 2.95051,0 5.30238,-2.39463 5.30238,-5.30239 v -30.23213 h 30.31765 c 2.95052,0 5.30238,-2.39462 5.30238,-5.34514 z M 76.539401,187.46182 H 32.538179 v -45.02749 c 0,-2.95052 -2.394624,-5.30238 -5.302382,-5.30238 H 10.345143 c -2.9505187,0 -5.3023819,2.39462 -5.3023819,5.30238 v 58.79658 C 5.0427611,208.79963 11.200366,215 18.811851,215 h 57.72755 c 2.950519,0 5.302382,-2.39462 5.302382,-5.30238 v -16.84789 c 0,-3.03605 -2.351863,-5.38791 -5.302382,-5.38791 z M 0,-8e-6 H 220 V 220 H 0 Z"
       inkscape:connector-curvature="0" /></g></svg>