<?xml version="1.0" encoding="UTF-8" standalone="no"?>
<svg
   xmlns:dc="http://purl.org/dc/elements/1.1/"
   xmlns:cc="http://creativecommons.org/ns#"
   xmlns:rdf="http://www.w3.org/1999/02/22-rdf-syntax-ns#"
   xmlns:svg="http://www.w3.org/2000/svg"
   xmlns="http://www.w3.org/2000/svg"
   xmlns:sodipodi="http://sodipodi.sourceforge.net/DTD/sodipodi-0.dtd"
   xmlns:inkscape="http://www.inkscape.org/namespaces/inkscape"
   width="220"
   height="220"
   viewBox="0 0 24 24"
   version="1.1"
   id="svg4"
   sodipodi:docname="iconmonstr-resize-3_larger_white.svg"
   inkscape:export-filename="/home/thomas/Dropbox/workspace/lineages_repo/lineages/res/images/iconmonstr-resize-3.svg.png"
   inkscape:export-xdpi="96"
   inkscape:export-ydpi="96"
   inkscape:version="0.92.1 unknown">
  <metadata
     id="metadata10">
    <rdf:RDF>
      <cc:Work
         rdf:about="">
        <dc:format>image/svg+xml</dc:format>
        <dc:type
           rdf:resource="http://purl.org/dc/dcmitype/StillImage" />
        <dc:title></dc:title>
      </cc:Work>
    </rdf:RDF>
  </metadata>
  <defs
     id="defs8" />
  <sodipodi:namedview
     pagecolor="#ffffff"
     bordercolor="#666666"
     borderopacity="1"
     objecttolerance="10"
     gridtolerance="10"
     guidetolerance="10"
     inkscape:pageopacity="0"
     inkscape:pageshadow="2"
     inkscape:window-width="1871"
     inkscape:window-height="1056"
     id="namedview6"
     showgrid="false"
     inkscape:zoom="1.0727273"
     inkscape:cx="-102.07627"
     inkscape:cy="110"
     inkscape:window-x="49"
     inkscape:window-y="24"
     inkscape:window-maximized="1"
     inkscape:current-layer="svg4" />
  <path
     d="M0 0v24h24v-24h-24zm20 11.333l-2.253-2.252-8.667 8.667 2.253 2.252h-7.333v-7.333l2.252 2.252 8.667-8.667-2.252-2.252h7.333v7.333z"
     id="path2" />
  <path
     style="fill:#ffffff;stroke-width:0.93220341"
     d="M 0.46610449,110.27966 V 0.74575992 H 110 219.5339 V 110.27966 219.81356 H 110 0.46610449 Z M 94.145293,173.19612 83.915608,162.93461 123.28528,123.56494 162.65495,84.195263 172.69863,94.207801 c 5.52403,5.506898 10.35145,10.012539 10.72761,10.012539 0.37617,0 0.68393,-15.311444 0.68393,-34.025428 V 36.169489 h -34.02542 c -18.71398,0 -34.02543,0.307769 -34.02543,0.683929 0,0.376162 4.50564,5.203587 10.01254,10.727611 L 136.0844,57.624708 96.714725,96.99438 57.345053,136.36405 47.301373,126.35152 c -5.524024,-5.5069 -10.351448,-10.01254 -10.72761,-10.01254 -0.376161,0 -0.68393,15.1017 -0.68393,33.55932 v 33.55932 h 34.242577 34.24258 z"
     id="path7"
     inkscape:connector-curvature="0"
     transform="scale(0.10909091)"
     inkscape:export-xdpi="96"
     inkscape:export-ydpi="96" />
</svg>
