<?xml version="1.0" encoding="UTF-8" standalone="no"?>
<svg
   xmlns:dc="http://purl.org/dc/elements/1.1/"
   xmlns:cc="http://creativecommons.org/ns#"
   xmlns:rdf="http://www.w3.org/1999/02/22-rdf-syntax-ns#"
   xmlns:svg="http://www.w3.org/2000/svg"
   xmlns="http://www.w3.org/2000/svg"
   xmlns:sodipodi="http://sodipodi.sourceforge.net/DTD/sodipodi-0.dtd"
   xmlns:inkscape="http://www.inkscape.org/namespaces/inkscape"
   width="220"
   height="220"
   viewBox="0 0 220 220"
   version="1.1"
   id="svg4"
   sodipodi:docname="iconmonstr-paint-bucket-9_subtracted.svg"
   inkscape:version="0.92.1 unknown">
  <metadata
     id="metadata10">
    <rdf:RDF>
      <cc:Work
         rdf:about="">
        <dc:format>image/svg+xml</dc:format>
        <dc:type
           rdf:resource="http://purl.org/dc/dcmitype/StillImage" />
        <dc:title></dc:title>
      </cc:Work>
    </rdf:RDF>
  </metadata>
  <defs
     id="defs8" />
  <sodipodi:namedview
     pagecolor="#ffffff"
     bordercolor="#666666"
     borderopacity="1"
     objecttolerance="10"
     gridtolerance="10"
     guidetolerance="10"
     inkscape:pageopacity="0"
     inkscape:pageshadow="2"
     inkscape:window-width="1352"
     inkscape:window-height="863"
     id="namedview6"
     showgrid="false"
     inkscape:zoom="2.4583333"
     inkscape:cx="57.494538"
     inkscape:cy="111.29138"
     inkscape:window-x="49"
     inkscape:window-y="24"
     inkscape:window-maximized="0"
     inkscape:current-layer="svg4" />
  <path
     style="fill:#000000;stroke-width:9.15435982"
     clip-path="none"
     d="M 0,-3.4e-7 V 220 H 220 V -3.4e-7 Z M 98.738281,3.1015622 c 11.911239,0.00921 34.660129,8.6294798 61.740239,36.0371098 15.51463,15.702288 26.26875,30.990854 32.92968,43.810547 l 0.12891,0.238281 0.0547,0.0918 c 12.97588,23.30017 25.79687,56.49154 25.79687,85.6582 0,10.17655 -8.13579,18.41992 -18.18164,18.41992 -10.04586,0.009 -18.19922,-8.23304 -18.19922,-18.40039 0,-10.21339 15.35995,-34.76587 7.07031,-42.82422 l -73.57812,74.40235 c -3.33951,3.37991 -8.18037,5.17578 -14.08594,5.17578 -16.843178,0 -42.468128,-13.62096 -67.619138,-39.07617 C 11.209022,142.77282 1.009,121.77637 1,106.71875 1.0091,99.75633 3.1929175,94.0737 7.2421875,89.957031 L 33.039062,63.875 c 3.41231,7.561044 8.518149,14.928258 15.142579,21.632812 9.80926,9.927898 22.729251,18.005958 37.707031,24.056638 0.45497,2.73523 1.701366,5.36953 3.785156,7.47852 5.3505,5.42442 13.968482,5.39679 19.300782,0 5.3323,-5.3968 5.34989,-14.11882 0.0176,-19.515626 C 102.57704,91.043819 91.967904,92.700932 87.527344,100.42773 73.395834,94.506006 62.522082,86.982732 54.632812,78.998047 46.033792,70.295019 40.891533,61.103038 38.689453,52.878906 35.304443,40.307867 37.925324,28.48414 45.896484,20.425781 53.849444,12.349004 67.699853,9.2074038 84.970703,11.380859 l 5.951172,-6.0234374 c 1.37402,-1.390642 4.058306,-2.2558594 7.816406,-2.2558594 z M 74.511719,19.916016 c -9.847081,0.0543 -17.684681,2.453299 -22.171875,7.029296 -5.4961,5.516523 -7.188496,13.500869 -5.041016,22.507813 L 76.507812,19.9375 c -0.673931,-0.01727 -1.339621,-0.0251 -1.996093,-0.02148 z m 30.761721,2.951172 c -1.3406,0.0388 -2.4465,0.436661 -3.25977,1.259765 -6.433338,6.520363 16.42376,34.729607 28.16211,46.619141 l 0.27344,0.267578 c 12.5755,-0.05526 28.72644,3.590805 44.35937,13.472656 C 167.07402,73.333559 155.91799,60.578703 148.07422,52.630859 135.54193,39.947001 114.6576,22.595595 105.27344,22.867188 Z m 37.10547,88.060542 -64.478519,65.25782 c 3.6398,3.50884 12.311642,7.79169 17.289062,8.54687 l 63.140627,-63.9043 c -4.44965,-1.32618 -12.75724,-6.49286 -15.95117,-9.90039 z"
     id="path2"
     inkscape:connector-curvature="0"
     inkscape:export-filename="/home/thomas/Downloads/path2.png"
     inkscape:export-xdpi="96"
     inkscape:export-ydpi="96" />
</svg>
